<svg xmlns="http://www.w3.org/2000/svg" version="1.0" preserveAspectRatio="xMidYMid meet" width="704" height="202" style=""><rect id="backgroundrect" width="100%" height="100%" x="0" y="0" fill="none" stroke="none"/>
 
 
<g class="currentLayer" style=""><title>Layer 1</title><g fill="#205be0" id="svg_1" class="">
  <path d="M36.6854248046875,187.7500061035156 l0,-13.9 l-5,-0.35000000000000003 c-6.75,-0.45 -10.95,-1.25 -14.1,-2.6500000000000004 c-7.75,-3.5 -13.5,-9.9 -16.2,-18 l-1.2,-3.5 l-0.15000000000000002,-62 c-0.1,-46.75 0,-62.75 0.45,-65 c0.9500000000000001,-4.85 3.45,-9.65 6.8,-13.25 c3.75,-4 7.5,-6.3 12.8,-7.9 l4.1,-1.2 l72.45,0.05000000000000001 c49.9,0 73.35,0.2 75.5,0.55 c5,0.9 11.05,4.1 14.85,7.95 c4.05,4.05 6.15,7.75 7.6,13.15 l1.1,4.15 l0,61.5 l0,61.5 l-1.15,3.7 c-2.85,9.1 -10,16.25 -19.3,19.45 l-4.05,1.35 l-47.9,0.15000000000000002 l-47.95,0.15000000000000002 l-1.6500000000000001,1.1 c-0.9500000000000001,0.6000000000000001 -9.45,6.9 -18.9,14 c-9.5,7.05 -17.45,12.85 -17.65,12.85 c-0.25,0 -0.45,-6.25 -0.45,-13.85 zm115.35,-58 c0.7500000000000001,-0.7000000000000001 0.9,-1.6 0.9,-6.45 c0,-5.25 -0.05000000000000001,-5.7 -1.1,-6.4 c-1,-0.7000000000000001 -4.5,-0.8 -28.2,-0.8 c-32.7,0 -29.7,-0.7500000000000001 -29.7,7.35 c0,4.25 0.15000000000000002,5.5 0.8500000000000001,6.25 c0.7500000000000001,0.8500000000000001 2.3,0.9 28.55,0.9 c25.15,0 27.85,-0.1 28.7,-0.8500000000000001 zm-96.6,-5.95 c0.7000000000000001,-0.45 9.95,-9.55 20.65,-20.15 c19,-18.9 19.35,-19.3 19.35,-21.3 c0.05000000000000001,-2 -0.15000000000000002,-2.2 -19.35,-21.15 c-10.65,-10.55 -20,-19.5 -20.7,-19.85 c-1.55,-0.8 -2.2,-0.45 -6.5,3.75 c-5.15,5 -6.2,3.05 11,20.1 l15.05,14.95 l0,2.55 l0,2.55 l-14.75,14.55 c-11.4,11.2 -14.75,14.85 -14.75,15.75 c0,0.8500000000000001 1.2,2.45 3.9,5.15 c2.15,2.15 4.15,3.9 4.4,3.9 c0.25,0 1.05,-0.35000000000000003 1.7000000000000002,-0.8 zm-12.15,-75.05 c-0.15000000000000002,-0.5 -0.25,-0.1 -0.25,0.8500000000000001 c0,0.9500000000000001 0.1,1.35 0.25,0.9 c0.1,-0.5 0.1,-1.3 0,-1.75 z" id="svg_2"/>
 </g>
  
  
  
  
  <path d="M93.2854248046875,130.79839969277384 c-0.7000000000000002,-0.7500000000000002 -0.8500000000000002,-2.1 -0.8500000000000002,-7.75 c0,-6.75 0,-6.8 1.3,-7.8 c1.3,-1.05 1.75,-1.05 29.9,-1.05 c25.05,0 28.7,0.1 29.7,0.8 c1.05,0.7000000000000002 1.1,1.1 1.1,7.9 c0,6.3 -0.1,7.25 -0.9,7.95 c-0.8500000000000002,0.7500000000000002 -3.6500000000000004,0.8500000000000002 -30.2,0.8500000000000002 c-27.7,0 -29.3,-0.05000000000000002 -30.05,-0.9 z" id="svg_8" fill="#ffffff" fill-opacity="1" class="" stroke="#ffffff" stroke-opacity="1"/>
  
  
  
  
  <path d="M48.13542480468749,122.0983996927738 c-4.45,-4.3 -5.3,-6.25 -3.95,-9.05 c0.5,-1.1 6.7,-7.55 15.05,-15.75 c9.8,-9.55 14.2,-14.25 14.2,-14.95 c0,-0.7500000000000002 -4.7,-5.75 -15,-16 c-13.7,-13.6 -15,-15.05 -15,-16.55 c0,-0.9 0.25,-2.15 0.55,-2.75 c0.6000000000000002,-1.2 5.45,-6.1 7.45,-7.45 c1.6,-1.15 3.85,-1.15 5.75,0.05000000000000002 c0.8500000000000002,0.5 10.1,9.45 20.65,19.85 l19.15,18.95 l-0.05000000000000002,3.5 l0,3.5 l-19.35,19.3 c-10.7,10.6 -19.95,19.7 -20.65,20.15 c-0.6500000000000002,0.45 -2.1,0.8 -3.15,0.8 c-1.75,0 -2.35,-0.4 -5.65,-3.6 z" id="svg_13" fill="#ffffff" fill-opacity="1" class="" stroke="#ffffff" stroke-opacity="1"/>
 <g class="selected"><path d="M310.0338183939457,131.89839969277386 c-5.55,-1.1 -12.25,-4.5 -16,-8.2 c-3.3,-3.2 -5.1,-6.15 -6.9,-11.15 c-1.25,-3.35 -1.3,-4.15 -1.3,-12.35 c0,-8.15 0.1,-9.05 1.35,-12.75 c4.85,-14.6 19.15,-22.65 34.9,-19.75 c9.6,1.8 17.9,10.1 20.9,20.9 c1.05,3.8 2.3,12.8 1.9500000000000002,14.4 c-0.15000000000000008,0.9 -1.15,0.9500000000000003 -21.9,0.9500000000000003 l-21.75,0 l-0.15000000000000008,1.4 c-0.1,0.7500000000000003 0.2,2.55 0.6500000000000004,4 c2.4,7.35 7.4,11.35 14.3,11.35 c4.15,0 7.9,-1.55 10.4,-4.25 c1.15,-1.25 2.05,-2.45 2.05,-2.75 c0,-0.30000000000000016 2.8,-0.5 7.75,-0.5 c8.95,0 8.75,-0.15000000000000008 6.25,4.8 c-2,4.05 -4.4,6.75 -8.4,9.35 c-5.15,3.45 -8.65,4.45 -16.35,4.6 c-3.55,0.1 -7.05,0.05000000000000003 -7.75,-0.05000000000000003 zm19,-40.35 c0,-0.9500000000000003 -0.7000000000000003,-3.1 -1.55,-4.75 c-2.4,-4.8 -6.35,-7.1 -12.3,-7.1 c-3.6500000000000004,0 -6.75,1.25 -9.2,3.7 c-2.25,2.25 -4.35,7.15 -4,9.45 c0.05000000000000003,0.2 6.15,0.35000000000000014 13.55,0.35000000000000014 l13.5,0 l0,-1.6500000000000006 z" id="svg_4" fill="#242424" fill-opacity="1" class="" stroke="#ffffff" stroke-opacity="1"/><path d="M370.0354248046875,131.44839969277382 c-8,-1.8 -15.4,-7.25 -17.5,-12.9 c-0.6000000000000002,-1.6 -1.1,-3.5 -1.1,-4.25 l0,-1.35 l7.85,0.1 c4.3,0.1 7.85,0.2 7.85,0.25 c0.05000000000000002,0.1 0.45,0.9500000000000002 0.9,2 c1.6,3.5 5.4,5.4 10.9,5.4 c4.3,0 7.6,-1.15 9.45,-3.3 c3.25,-3.6500000000000004 2.25,-7.65 -2.45,-9.65 c-2.3,-1 -4.2,-1.5 -15.5,-4 c-6,-1.35 -9.35,-2.9 -12.45,-5.8 c-5.6,-5.25 -6.95,-13.7 -3.2,-20.15 c4.3,-7.45 15.2,-11.65 27.35,-10.55 c5.1,0.5 8.25,1.4 12.45,3.6 c4.85,2.55 8.7,7.8 9.25,12.65 l0.25,2.2 l-7.05,0 l-7,0 l-1.15,-2.35 c-0.9500000000000002,-1.9 -1.75,-2.6500000000000004 -3.95,-3.8 c-2.55,-1.35 -3.05,-1.45 -7,-1.2 c-6.3,0.3000000000000001 -10,2.75 -10,6.6 c0,3.8 3.2,5.85 12,7.7 c13.6,2.85 16.9,4.05 20.8,7.65 c1.2,1.1 2.8,3.25 3.55,4.8 c1.2,2.5 1.4,3.4 1.35,7.35 c0,3.9 -0.2,4.9 -1.4,7.25 c-2.6,5.2 -6.7,8.5 -13.45,10.85 c-3.05,1.1 -4.7,1.3 -10.6,1.45 c-4.85,0.15000000000000005 -7.95,-0.05000000000000002 -10.15,-0.55 z" id="svg_5" fill="#242424" fill-opacity="1" class="" stroke="#ffffff" stroke-opacity="1"/><path d="M436.9354248046875,131.69839969277382 c-1.5,-0.2 -3.7,-0.6000000000000002 -4.85,-0.9 c-3.15,-0.9500000000000002 -7.9,-4.35 -9.65,-6.95 c-2.85,-4.35 -3,-5.55 -3,-25 l0,-17.65 l-4.5,0 l-4.5,0 l0,-6.55 l0,-6.5 l4.4,0.1 l4.35,0.1 l0.15000000000000005,-7.6 l0.15000000000000005,-7.55 l7.95,0 l8,0 l0,7.5 l0,7.5 l6.75,0 l6.75,0 l-0.15000000000000005,6.35 l-0.1,6.4 l-6.6,0.15000000000000005 l-6.65,0.15000000000000005 l0,15.85 c0,14.5 0.1,16 0.9500000000000002,17.6 c1.45,2.7 4.4,4 9.15,4 l3.9,0 l0,6.5 l0,6.5 l-4.1,0.05000000000000002 c-2.3,0 -4.5,0.05000000000000002 -4.9,0.15000000000000005 c-0.4,0.05000000000000002 -2,-0.05000000000000002 -3.5,-0.2 z" id="svg_6" fill="#242424" fill-opacity="1" class="" stroke="#ffffff" stroke-opacity="1"/><path d="M570.6854248046875,131.8483996927738 c-13.4,-2.1 -22.25,-12.55 -23.7,-27.95 c-1.55,-17.3 5.5,-30.45 18.95,-35.25 c2.85,-1.05 4.15,-1.2 11,-1.2 c9,0 12.7,0.8500000000000002 17.75,4.15 c8.7,5.6 12.75,14.2 12.85,27.1 c0.1,11.7 -2.6,19.35 -9.05,25.85 c-5.5,5.5 -9.95,7.2 -19.55,7.4 c-3.7,0.1 -7.4,0.05000000000000002 -8.25,-0.1 zm12,-14.35 c1.4,-0.6500000000000002 3.2,-1.9500000000000002 4.1,-2.85 c6.05,-6.35 6.05,-22.85 0.05000000000000002,-29.7 c-2.6,-3 -5.5,-4.25 -9.6,-4.25 c-8.05,0 -12.95,6 -13.65,16.8 c-0.8500000000000002,13.2 4.3,21.05 13.85,21.15 c1.9,0.05000000000000002 3.5,-0.3000000000000001 5.25,-1.15 z" id="svg_7" fill="#242424" fill-opacity="1" class="" stroke="#ffffff" stroke-opacity="1"/><path d="M248.9354248046875,95.69839969277382 l0,-35.5 l-12,0 l-12,0 l0,-7.25 l0,-7.25 l32.4,0 l32.35,0 l-0.15000000000000005,7.25 l-0.15000000000000005,7.25 l-12,0 l-11.95,0 l0,35.5 l0,35.5 l-8.25,0 l-8.25,0 l0,-35.5 z" id="svg_9" fill="#242424" fill-opacity="1" class="" stroke="#ffffff" stroke-opacity="1"/><path d="M459.9354248046875,88.44839969277382 l0,-42.75 l26.75,0 l26.75,0 l0,7.25 l0,7.25 l-18.5,0 l-18.5,0 l0,11.25 l0,11.25 l16.5,0 l16.5,0 l0,7 l0,7 l-16.5,0 l-16.5,0 l0,17.25 l0,17.25 l-8.25,0 l-8.25,0 l0,-42.75 z" id="svg_10" fill="#242424" fill-opacity="1" class="" stroke="#ffffff" stroke-opacity="1"/><path d="M520.4354248046875,88.44839969277382 l0,-42.75 l8.3,0 l8.3,0 l-0.3000000000000001,1.15 c-0.15000000000000005,0.6000000000000002 -0.3000000000000001,19.85 -0.3000000000000001,42.75 l0,41.6 l-8,0 l-8,0 l0,-42.75 z" id="svg_11" fill="#242424" fill-opacity="1" class="" stroke="#ffffff" stroke-opacity="1"/><path d="M626.4854248046875,125.5983996927738 c-0.8500000000000002,-3.1 -2.45,-8.55 -3.5,-12.15 c-1.1,-3.55 -3.1,-10.3 -4.5,-15 c-1.35,-4.65 -3.9,-13 -5.55,-18.5 c-1.7000000000000002,-5.5 -3.2,-10.4 -3.35,-10.9 c-0.25,-0.8 0.3000000000000001,-0.8500000000000002 8.6,-0.7500000000000002 l8.8,0.15000000000000005 l5,19.75 c2.7,10.85 4.95,20.15 4.95,20.6 c0,1.45 0.9500000000000002,1.5 1.25,0.05000000000000002 c0.25,-1.05 8.2,-29.65 11.05,-39.75 c0.25,-0.8 1.05,-0.9 7.95,-0.9 l7.7,0 l0.55,2.15 c0.3000000000000001,1.15 1.1,4 1.7000000000000002,6.35 c1.1,3.9 3.3,12.3 6.8,25.5 c0.8,2.9 1.55,5.9 1.75,6.7 c0.15000000000000005,0.8 0.5,1.25 0.7000000000000002,1 c0.25,-0.25 2.6,-9.45 5.3,-20.45 c2.6500000000000004,-11 4.95,-20.3 5.05,-20.65 c0.1,-0.45 2.3,-0.6000000000000002 8.7,-0.6000000000000002 c4.65,0 8.5,0.1 8.5,0.25 c0,0.15000000000000005 -2.15,7.3 -4.75,15.9 c-2.6,8.6 -6.8,22.6 -9.35,31.1 l-4.65,15.5 l-8.7,0 l-8.75,0 l-0.4,-1.75 c-0.25,-0.9500000000000002 -0.7500000000000002,-2.85 -1.15,-4.25 c-0.8500000000000002,-2.9 -8.45,-31.8 -8.95,-33.95 c-0.2,-0.8 -0.55,-1.25 -0.7500000000000002,-1 c-0.2,0.25 -1.35,4.15 -2.5,8.7 c-1.15,4.55 -3.05,11.85 -4.25,16.25 c-1.2,4.4 -2.7,9.85 -3.3,12.15 l-1.1,4.1 l-8.6,0 l-8.65,0 l-1.6,-5.6 z" id="svg_12" fill="#242424" fill-opacity="1" class="" stroke="#ffffff" stroke-opacity="1"/></g></g></svg>