<?xml version="1.0" encoding="utf-8"?>
<!DOCTYPE svg PUBLIC "-//W3C//DTD SVG 1.0//EN" "http://www.w3.org/TR/2001/REC-SVG-20010904/DTD/svg10.dtd">
<svg version="1.0" xmlns="http://www.w3.org/2000/svg" width="1024px" height="1024px" viewBox="0 0 1024 1024" preserveAspectRatio="xMidYMid meet">
 <g fill="#205be0">
  <path d="M193.25 602.65 l0 -13.90 -5 -0.35 c-6.75 -0.45 -10.95 -1.25 -14.10 -2.65 -7.75 -3.50 -13.50 -9.90 -16.20 -18 l-1.20 -3.50 -0.15 -62 c-0.10 -46.75 0 -62.75 0.45 -65 0.95 -4.85 3.45 -9.65 6.80 -13.25 3.75 -4 7.50 -6.30 12.80 -7.90 l4.10 -1.20 72.45 0.05 c49.90 0 73.35 0.20 75.50 0.55 5 0.90 11.05 4.10 14.85 7.95 4.05 4.05 6.15 7.75 7.60 13.15 l1.10 4.15 0 61.50 0 61.50 -1.15 3.70 c-2.85 9.10 -10 16.25 -19.30 19.45 l-4.05 1.35 -47.90 0.15 -47.95 0.15 -1.65 1.10 c-0.95 0.60 -9.45 6.90 -18.90 14 -9.50 7.05 -17.45 12.85 -17.65 12.85 -0.25 0 -0.45 -6.25 -0.45 -13.85z m115.35 -58 c0.75 -0.70 0.90 -1.60 0.90 -6.45 0 -5.25 -0.05 -5.70 -1.10 -6.40 -1 -0.70 -4.50 -0.80 -28.20 -0.80 -32.70 0 -29.70 -0.75 -29.70 7.35 0 4.25 0.15 5.50 0.85 6.25 0.75 0.85 2.30 0.90 28.55 0.90 25.15 0 27.85 -0.10 28.70 -0.85z m-96.60 -5.95 c0.70 -0.45 9.95 -9.55 20.65 -20.15 19 -18.90 19.35 -19.30 19.35 -21.30 0.05 -2 -0.15 -2.20 -19.35 -21.15 -10.65 -10.55 -20 -19.50 -20.70 -19.85 -1.55 -0.80 -2.20 -0.45 -6.50 3.75 -5.15 5 -6.20 3.05 11 20.10 l15.05 14.95 0 2.55 0 2.55 -14.75 14.55 c-11.40 11.20 -14.75 14.85 -14.75 15.75 0 0.85 1.20 2.45 3.90 5.15 2.15 2.15 4.15 3.90 4.40 3.90 0.25 0 1.05 -0.35 1.70 -0.80z m-12.15 -75.05 c-0.15 -0.50 -0.25 -0.10 -0.25 0.85 0 0.95 0.10 1.35 0.25 0.90 0.10 -0.50 0.10 -1.30 0 -1.75z"/>
 </g>
 <g fill="#fffffe">
  <path d="M467 547.20 c-5.55 -1.10 -12.25 -4.50 -16 -8.20 -3.30 -3.20 -5.10 -6.15 -6.90 -11.15 -1.25 -3.35 -1.30 -4.15 -1.30 -12.35 0 -8.15 0.10 -9.05 1.35 -12.75 4.85 -14.60 19.15 -22.65 34.90 -19.75 9.60 1.80 17.90 10.10 20.90 20.90 1.05 3.80 2.30 12.80 1.95 14.40 -0.15 0.90 -1.15 0.95 -21.90 0.95 l-21.75 0 -0.15 1.40 c-0.10 0.75 0.20 2.55 0.65 4 2.40 7.35 7.40 11.35 14.30 11.35 4.15 0 7.90 -1.55 10.40 -4.25 1.15 -1.25 2.05 -2.45 2.05 -2.75 0 -0.30 2.80 -0.50 7.75 -0.50 8.95 0 8.75 -0.15 6.25 4.80 -2 4.05 -4.40 6.75 -8.40 9.35 -5.15 3.45 -8.65 4.45 -16.35 4.60 -3.55 0.10 -7.05 0.05 -7.75 -0.05z m19 -40.35 c0 -0.95 -0.70 -3.10 -1.55 -4.75 -2.40 -4.80 -6.35 -7.10 -12.30 -7.10 -3.65 0 -6.75 1.25 -9.20 3.70 -2.25 2.25 -4.35 7.15 -4 9.45 0.05 0.20 6.15 0.35 13.55 0.35 l13.50 0 0 -1.65z"/>
  <path d="M526.60 546.75 c-8 -1.80 -15.40 -7.25 -17.50 -12.90 -0.60 -1.60 -1.10 -3.50 -1.10 -4.25 l0 -1.35 7.85 0.10 c4.30 0.10 7.85 0.20 7.85 0.25 0.05 0.10 0.45 0.95 0.90 2 1.60 3.50 5.40 5.40 10.90 5.40 4.30 0 7.60 -1.15 9.45 -3.30 3.25 -3.65 2.25 -7.65 -2.45 -9.65 -2.30 -1 -4.20 -1.50 -15.50 -4 -6 -1.35 -9.35 -2.90 -12.45 -5.80 -5.60 -5.25 -6.95 -13.70 -3.20 -20.15 4.30 -7.45 15.20 -11.65 27.35 -10.55 5.10 0.50 8.25 1.40 12.45 3.60 4.85 2.55 8.70 7.80 9.25 12.65 l0.25 2.20 -7.05 0 -7 0 -1.15 -2.35 c-0.95 -1.90 -1.75 -2.65 -3.95 -3.80 -2.55 -1.35 -3.05 -1.45 -7 -1.20 -6.30 0.30 -10 2.75 -10 6.60 0 3.80 3.20 5.85 12 7.70 13.60 2.85 16.90 4.05 20.80 7.65 1.20 1.10 2.80 3.25 3.55 4.80 1.20 2.50 1.40 3.40 1.35 7.35 0 3.90 -0.20 4.90 -1.40 7.25 -2.60 5.20 -6.70 8.50 -13.45 10.85 -3.05 1.10 -4.70 1.30 -10.60 1.45 -4.85 0.15 -7.95 -0.05 -10.15 -0.55z"/>
  <path d="M593.50 547 c-1.50 -0.20 -3.70 -0.60 -4.85 -0.90 -3.15 -0.95 -7.90 -4.35 -9.65 -6.95 -2.85 -4.35 -3 -5.55 -3 -25 l0 -17.65 -4.50 0 -4.50 0 0 -6.55 0 -6.50 4.40 0.10 4.35 0.10 0.15 -7.60 0.15 -7.55 7.95 0 8 0 0 7.50 0 7.50 6.75 0 6.75 0 -0.15 6.35 -0.10 6.40 -6.60 0.15 -6.65 0.15 0 15.85 c0 14.50 0.10 16 0.95 17.60 1.45 2.70 4.40 4 9.15 4 l3.90 0 0 6.50 0 6.50 -4.10 0.05 c-2.30 0 -4.50 0.05 -4.90 0.15 -0.40 0.05 -2 -0.05 -3.50 -0.20z"/>
  <path d="M727.25 547.15 c-13.40 -2.10 -22.25 -12.55 -23.70 -27.95 -1.55 -17.30 5.50 -30.45 18.95 -35.25 2.85 -1.05 4.15 -1.20 11 -1.20 9 0 12.70 0.85 17.75 4.15 8.70 5.60 12.75 14.20 12.85 27.10 0.10 11.70 -2.60 19.35 -9.05 25.85 -5.50 5.50 -9.95 7.20 -19.55 7.40 -3.70 0.10 -7.40 0.05 -8.25 -0.10z m12 -14.35 c1.40 -0.65 3.20 -1.95 4.10 -2.85 6.05 -6.35 6.05 -22.85 0.05 -29.70 -2.60 -3 -5.50 -4.25 -9.60 -4.25 -8.05 0 -12.95 6 -13.65 16.80 -0.85 13.20 4.30 21.05 13.85 21.15 1.90 0.05 3.50 -0.30 5.25 -1.15z"/>
  <path d="M249.85 546.10 c-0.70 -0.75 -0.85 -2.10 -0.85 -7.75 0 -6.75 0 -6.80 1.30 -7.80 1.30 -1.05 1.75 -1.05 29.90 -1.05 25.05 0 28.70 0.10 29.70 0.80 1.05 0.70 1.10 1.10 1.10 7.90 0 6.30 -0.10 7.25 -0.90 7.95 -0.85 0.75 -3.65 0.85 -30.20 0.85 -27.70 0 -29.30 -0.05 -30.05 -0.90z"/>
  <path d="M405.50 511 l0 -35.50 -12 0 -12 0 0 -7.25 0 -7.25 32.40 0 32.35 0 -0.15 7.25 -0.15 7.25 -12 0 -11.95 0 0 35.50 0 35.50 -8.25 0 -8.25 0 0 -35.50z"/>
  <path d="M616.50 503.75 l0 -42.75 26.75 0 26.75 0 0 7.25 0 7.25 -18.50 0 -18.50 0 0 11.25 0 11.25 16.50 0 16.50 0 0 7 0 7 -16.50 0 -16.50 0 0 17.25 0 17.25 -8.25 0 -8.25 0 0 -42.75z"/>
  <path d="M677 503.75 l0 -42.75 8.30 0 8.30 0 -0.30 1.15 c-0.15 0.60 -0.30 19.85 -0.30 42.75 l0 41.60 -8 0 -8 0 0 -42.75z"/>
  <path d="M783.05 540.90 c-0.85 -3.10 -2.45 -8.55 -3.50 -12.15 -1.10 -3.55 -3.10 -10.30 -4.50 -15 -1.35 -4.65 -3.90 -13 -5.55 -18.50 -1.70 -5.50 -3.20 -10.40 -3.35 -10.90 -0.25 -0.80 0.30 -0.85 8.60 -0.75 l8.80 0.15 5 19.75 c2.70 10.85 4.95 20.15 4.95 20.60 0 1.45 0.95 1.50 1.25 0.05 0.25 -1.05 8.20 -29.65 11.05 -39.75 0.25 -0.80 1.05 -0.90 7.95 -0.90 l7.70 0 0.55 2.15 c0.30 1.15 1.10 4 1.70 6.35 1.10 3.90 3.30 12.30 6.80 25.50 0.80 2.90 1.55 5.90 1.75 6.70 0.15 0.80 0.50 1.25 0.70 1 0.25 -0.25 2.60 -9.45 5.30 -20.45 2.65 -11 4.95 -20.30 5.05 -20.65 0.10 -0.45 2.30 -0.60 8.70 -0.60 4.65 0 8.50 0.10 8.50 0.25 0 0.15 -2.15 7.30 -4.75 15.90 -2.60 8.60 -6.80 22.60 -9.35 31.10 l-4.65 15.50 -8.70 0 -8.75 0 -0.40 -1.75 c-0.25 -0.95 -0.75 -2.85 -1.15 -4.25 -0.85 -2.90 -8.45 -31.80 -8.95 -33.95 -0.20 -0.80 -0.55 -1.25 -0.75 -1 -0.20 0.25 -1.35 4.15 -2.50 8.70 -1.15 4.55 -3.05 11.85 -4.25 16.25 -1.20 4.40 -2.70 9.85 -3.30 12.15 l-1.10 4.10 -8.60 0 -8.65 0 -1.60 -5.60z"/>
  <path d="M204.70 537.40 c-4.45 -4.30 -5.30 -6.25 -3.95 -9.05 0.50 -1.10 6.70 -7.55 15.05 -15.75 9.80 -9.55 14.20 -14.25 14.20 -14.95 0 -0.75 -4.70 -5.75 -15 -16 -13.70 -13.60 -15 -15.05 -15 -16.55 0 -0.90 0.25 -2.15 0.55 -2.75 0.60 -1.20 5.45 -6.10 7.45 -7.45 1.60 -1.15 3.85 -1.15 5.75 0.05 0.85 0.50 10.10 9.45 20.65 19.85 l19.15 18.95 -0.05 3.50 0 3.50 -19.35 19.30 c-10.70 10.60 -19.95 19.70 -20.65 20.15 -0.65 0.45 -2.10 0.80 -3.15 0.80 -1.75 0 -2.35 -0.40 -5.65 -3.60z"/>
 </g>
</svg>